<?xml version="1.0" encoding="utf-8"?>
<!-- Generator: Adobe Illustrator 24.0.0, SVG Export Plug-In . SVG Version: 6.00 Build 0)  -->
<svg version="1.1" id="Layer_1" xmlns="http://www.w3.org/2000/svg" xmlns:xlink="http://www.w3.org/1999/xlink" x="0px" y="0px"
	 viewBox="0 0 24 24" style="enable-background:new 0 0 24 24;" xml:space="preserve">
<style type="text/css">
	.st0{fill:#FFFFFF;}
</style>
<title>109 shopping bag</title>
<g id="_01_align_center">
	<path class="st0" d="M18,6c0-3.3-2.7-6-6-6S6,2.7,6,6H0v15c0,1.7,1.3,3,3,3h18c1.7,0,3-1.3,3-3V6H18z M12,2c2.2,0,4,1.8,4,4H8
		C8,3.8,9.8,2,12,2z M22,21c0,0.6-0.4,1-1,1H3c-0.6,0-1-0.4-1-1V8h4v2h2V8h8v2h2V8h4V21z"/>
</g>
</svg>
