<?xml version="1.0" encoding="utf-8"?>
<!-- Generator: Adobe Illustrator 24.0.0, SVG Export Plug-In . SVG Version: 6.00 Build 0)  -->
<svg version="1.1" id="Layer_1" xmlns="http://www.w3.org/2000/svg" xmlns:xlink="http://www.w3.org/1999/xlink" x="0px" y="0px"
	 viewBox="0 0 24 24" style="enable-background:new 0 0 24 24;" xml:space="preserve">
<style type="text/css">
	.st0{fill:#FFFFFF;}
</style>
<title>121 heart</title>
<g id="_01_align_center">
	<path class="st0" d="M17.5,0.9c-2.3,0-4.4,1.3-5.5,3.3c-1.1-2-3.2-3.3-5.5-3.3C2.8,1.1-0.1,4.2,0,8c0,6.8,11,14.6,11.4,14.9
		l0.6,0.4l0.6-0.4C13,22.6,24,14.7,24,8C24.1,4.2,21.2,1.1,17.5,0.9z M12,20.8C8.7,18.4,2,12.4,2,8C1.9,5.3,3.9,3.1,6.5,2.9
		c2.6,0.2,4.6,2.4,4.5,5h2c-0.1-2.6,1.9-4.9,4.5-5.1C20.1,3.1,22.1,5.3,22,8C22,12.4,15.3,18.4,12,20.8z"/>
</g>
</svg>
